<mxfile host="app.diagrams.net" modified="2023-05-27T08:14:27.432Z" agent="Mozilla/5.0 (Windows NT 10.0; Win64; x64) AppleWebKit/537.36 (KHTML, like Gecko) Chrome/113.0.0.0 Safari/537.36" etag="_W8oPGRA4rdCHhZGgfSa" version="21.2.9" type="device">
  <diagram id="m7S1FEcc_9HMYki7h5Pr" name="Page-1">
    <mxGraphModel dx="4449" dy="1617" grid="1" gridSize="10" guides="1" tooltips="1" connect="1" arrows="1" fold="1" page="0" pageScale="1" pageWidth="850" pageHeight="1100" math="0" shadow="0">
      <root>
        <mxCell id="0" />
        <mxCell id="1" parent="0" />
        <mxCell id="1qI46Z2lSgomtGIxtlbY-3" value="VPC" style="points=[[0,0],[0.25,0],[0.5,0],[0.75,0],[1,0],[1,0.25],[1,0.5],[1,0.75],[1,1],[0.75,1],[0.5,1],[0.25,1],[0,1],[0,0.75],[0,0.5],[0,0.25]];outlineConnect=0;gradientColor=none;html=1;whiteSpace=wrap;fontSize=12;fontStyle=0;container=1;pointerEvents=0;collapsible=0;recursiveResize=0;shape=mxgraph.aws4.group;grIcon=mxgraph.aws4.group_vpc;strokeColor=#248814;fillColor=none;verticalAlign=top;align=left;spacingLeft=30;fontColor=#AAB7B8;dashed=0;rounded=1;" vertex="1" parent="1">
          <mxGeometry x="-2870" y="-530" width="1200" height="800" as="geometry" />
        </mxCell>
        <mxCell id="1qI46Z2lSgomtGIxtlbY-9" value="VPC private subnet&lt;br&gt;" style="shape=mxgraph.ibm.box;prType=vpc;fontStyle=0;verticalAlign=top;align=left;spacingLeft=32;spacingTop=4;fillColor=none;rounded=1;whiteSpace=wrap;html=1;strokeColor=#4376BB;strokeWidth=2;dashed=0;container=1;spacing=-4;collapsible=0;expand=0;recursiveResize=0;fontSize=16;" vertex="1" parent="1qI46Z2lSgomtGIxtlbY-3">
          <mxGeometry x="40" y="390" width="680" height="370" as="geometry" />
        </mxCell>
        <mxCell id="1qI46Z2lSgomtGIxtlbY-6" value="" style="sketch=0;outlineConnect=0;fontColor=#232F3E;gradientColor=none;fillColor=#2E27AD;strokeColor=none;dashed=0;verticalLabelPosition=bottom;verticalAlign=top;align=center;html=1;fontSize=12;fontStyle=0;aspect=fixed;pointerEvents=1;shape=mxgraph.aws4.rds_mysql_instance;rounded=1;" vertex="1" parent="1qI46Z2lSgomtGIxtlbY-9">
          <mxGeometry x="450" y="161" width="78" height="78" as="geometry" />
        </mxCell>
        <mxCell id="1qI46Z2lSgomtGIxtlbY-33" value="" style="sketch=0;outlineConnect=0;fontColor=#232F3E;gradientColor=none;fillColor=#2E27AD;strokeColor=none;dashed=0;verticalLabelPosition=bottom;verticalAlign=top;align=center;html=1;fontSize=12;fontStyle=0;aspect=fixed;pointerEvents=1;shape=mxgraph.aws4.rds_instance_alt;rounded=1;" vertex="1" parent="1qI46Z2lSgomtGIxtlbY-9">
          <mxGeometry x="270" y="170" width="78" height="78" as="geometry" />
        </mxCell>
        <mxCell id="1qI46Z2lSgomtGIxtlbY-48" value="EC2 instance contents" style="points=[[0,0],[0.25,0],[0.5,0],[0.75,0],[1,0],[1,0.25],[1,0.5],[1,0.75],[1,1],[0.75,1],[0.5,1],[0.25,1],[0,1],[0,0.75],[0,0.5],[0,0.25]];outlineConnect=0;gradientColor=none;html=1;whiteSpace=wrap;fontSize=12;fontStyle=0;container=1;pointerEvents=0;collapsible=0;recursiveResize=0;shape=mxgraph.aws4.group;grIcon=mxgraph.aws4.group_ec2_instance_contents;strokeColor=#D86613;fillColor=none;verticalAlign=top;align=left;spacingLeft=30;fontColor=#D86613;dashed=0;rounded=1;" vertex="1" parent="1qI46Z2lSgomtGIxtlbY-9">
          <mxGeometry x="20" y="70" width="610" height="260" as="geometry" />
        </mxCell>
        <mxCell id="1qI46Z2lSgomtGIxtlbY-49" value="" style="outlineConnect=0;dashed=0;verticalLabelPosition=bottom;verticalAlign=top;align=center;html=1;shape=mxgraph.aws3.ec2;fillColor=#F58534;gradientColor=none;rounded=1;fontSize=16;" vertex="1" parent="1qI46Z2lSgomtGIxtlbY-9">
          <mxGeometry x="100" y="161" width="76.5" height="93" as="geometry" />
        </mxCell>
        <mxCell id="1qI46Z2lSgomtGIxtlbY-50" value="EC2" style="text;strokeColor=none;fillColor=none;html=1;align=center;verticalAlign=middle;whiteSpace=wrap;rounded=0;fontSize=16;" vertex="1" parent="1qI46Z2lSgomtGIxtlbY-9">
          <mxGeometry x="130" y="192.5" width="60" height="30" as="geometry" />
        </mxCell>
        <mxCell id="1qI46Z2lSgomtGIxtlbY-16" value="VPC public subnet" style="shape=mxgraph.ibm.box;prType=vpc;fontStyle=0;verticalAlign=top;align=left;spacingLeft=32;spacingTop=4;fillColor=none;rounded=1;whiteSpace=wrap;html=1;strokeColor=#4376BB;strokeWidth=2;dashed=0;container=1;spacing=-4;collapsible=0;expand=0;recursiveResize=0;fontSize=16;" vertex="1" parent="1qI46Z2lSgomtGIxtlbY-3">
          <mxGeometry x="40" y="50" width="680" height="250" as="geometry" />
        </mxCell>
        <mxCell id="1qI46Z2lSgomtGIxtlbY-23" value="" style="outlineConnect=0;dashed=0;verticalLabelPosition=bottom;verticalAlign=top;align=center;html=1;shape=mxgraph.aws3.waf;fillColor=#759C3E;gradientColor=none;fontSize=16;rounded=1;" vertex="1" parent="1qI46Z2lSgomtGIxtlbY-16">
          <mxGeometry x="50" y="38.5" width="76.5" height="93" as="geometry" />
        </mxCell>
        <mxCell id="1qI46Z2lSgomtGIxtlbY-24" value="" style="outlineConnect=0;dashed=0;verticalLabelPosition=bottom;verticalAlign=top;align=center;html=1;shape=mxgraph.aws3.waf;fillColor=#759C3E;gradientColor=none;fontSize=16;rounded=1;" vertex="1" parent="1qI46Z2lSgomtGIxtlbY-16">
          <mxGeometry x="480" y="38.5" width="76.5" height="93" as="geometry" />
        </mxCell>
        <mxCell id="1qI46Z2lSgomtGIxtlbY-28" value="WAF" style="text;strokeColor=none;fillColor=none;html=1;align=center;verticalAlign=middle;whiteSpace=wrap;rounded=1;fontSize=16;" vertex="1" parent="1qI46Z2lSgomtGIxtlbY-16">
          <mxGeometry x="58.25" y="90" width="60" height="30" as="geometry" />
        </mxCell>
        <mxCell id="1qI46Z2lSgomtGIxtlbY-29" value="WAF" style="text;strokeColor=none;fillColor=none;html=1;align=center;verticalAlign=middle;whiteSpace=wrap;rounded=1;fontSize=16;" vertex="1" parent="1qI46Z2lSgomtGIxtlbY-16">
          <mxGeometry x="488.25" y="90" width="60" height="30" as="geometry" />
        </mxCell>
        <mxCell id="1qI46Z2lSgomtGIxtlbY-26" value="NAT gateway" style="sketch=0;outlineConnect=0;fontColor=#232F3E;gradientColor=none;strokeColor=#232F3E;fillColor=#ffffff;dashed=0;verticalLabelPosition=bottom;verticalAlign=top;align=center;html=1;fontSize=12;fontStyle=0;aspect=fixed;shape=mxgraph.aws4.resourceIcon;resIcon=mxgraph.aws4.nat_gateway;rounded=1;" vertex="1" parent="1qI46Z2lSgomtGIxtlbY-3">
          <mxGeometry x="310" y="280" width="125" height="125" as="geometry" />
        </mxCell>
        <mxCell id="1qI46Z2lSgomtGIxtlbY-4" style="edgeStyle=none;curved=1;rounded=1;orthogonalLoop=1;jettySize=auto;html=1;exitX=0.5;exitY=0;exitDx=0;exitDy=0;fontSize=12;startSize=8;endSize=8;" edge="1" parent="1" source="1qI46Z2lSgomtGIxtlbY-3" target="1qI46Z2lSgomtGIxtlbY-3">
          <mxGeometry relative="1" as="geometry" />
        </mxCell>
        <mxCell id="1qI46Z2lSgomtGIxtlbY-2" value="" style="sketch=0;outlineConnect=0;fontColor=#232F3E;gradientColor=none;fillColor=#4D27AA;strokeColor=none;dashed=0;verticalLabelPosition=bottom;verticalAlign=top;align=center;html=1;fontSize=12;fontStyle=0;aspect=fixed;pointerEvents=1;shape=mxgraph.aws4.internet_gateway;rotation=-180;rounded=1;" vertex="1" parent="1">
          <mxGeometry x="-1700" y="-190" width="60" height="60" as="geometry" />
        </mxCell>
        <mxCell id="1qI46Z2lSgomtGIxtlbY-44" value="" style="edgeStyle=none;orthogonalLoop=1;jettySize=auto;html=1;rounded=1;fontSize=12;startSize=8;endSize=8;curved=1;" edge="1" parent="1" target="1qI46Z2lSgomtGIxtlbY-2">
          <mxGeometry width="140" relative="1" as="geometry">
            <mxPoint x="-1440" y="-160" as="sourcePoint" />
            <mxPoint x="-2136" y="-360" as="targetPoint" />
            <Array as="points" />
          </mxGeometry>
        </mxCell>
        <mxCell id="1qI46Z2lSgomtGIxtlbY-45" value="" style="outlineConnect=0;dashed=0;verticalLabelPosition=bottom;verticalAlign=top;align=center;html=1;shape=mxgraph.aws3.internet_2;fillColor=#D2D3D3;gradientColor=none;rounded=1;fontSize=16;" vertex="1" parent="1">
          <mxGeometry x="-1150" y="-260" width="200" height="150" as="geometry" />
        </mxCell>
        <mxCell id="1qI46Z2lSgomtGIxtlbY-46" value="" style="edgeStyle=none;orthogonalLoop=1;jettySize=auto;html=1;rounded=1;fontSize=12;startSize=8;endSize=8;curved=1;exitX=1;exitY=0.5;exitDx=0;exitDy=0;exitPerimeter=0;" edge="1" parent="1" source="1qI46Z2lSgomtGIxtlbY-30" target="1qI46Z2lSgomtGIxtlbY-45">
          <mxGeometry width="140" relative="1" as="geometry">
            <mxPoint x="-2017" y="-220" as="sourcePoint" />
            <mxPoint x="-2136" y="-360" as="targetPoint" />
            <Array as="points" />
          </mxGeometry>
        </mxCell>
        <mxCell id="1qI46Z2lSgomtGIxtlbY-47" value="" style="edgeStyle=none;orthogonalLoop=1;jettySize=auto;html=1;rounded=1;fontSize=12;startSize=8;endSize=8;curved=1;" edge="1" parent="1" source="1qI46Z2lSgomtGIxtlbY-45" target="1qI46Z2lSgomtGIxtlbY-30">
          <mxGeometry width="140" relative="1" as="geometry">
            <mxPoint x="-1630" y="-152" as="sourcePoint" />
            <mxPoint x="-1510" y="-159" as="targetPoint" />
            <Array as="points" />
          </mxGeometry>
        </mxCell>
        <mxCell id="1qI46Z2lSgomtGIxtlbY-30" value="" style="outlineConnect=0;dashed=0;verticalLabelPosition=bottom;verticalAlign=top;align=center;html=1;shape=mxgraph.aws3.route_53;fillColor=#F58536;gradientColor=none;fontSize=16;rounded=1;" vertex="1" parent="1">
          <mxGeometry x="-1470" y="-260" width="150" height="170" as="geometry" />
        </mxCell>
        <mxCell id="1qI46Z2lSgomtGIxtlbY-51" value="ROUTE 53&lt;br&gt;" style="text;strokeColor=none;fillColor=none;html=1;align=center;verticalAlign=middle;whiteSpace=wrap;rounded=0;fontSize=16;" vertex="1" parent="1">
          <mxGeometry x="-1425" y="-180" width="60" height="30" as="geometry" />
        </mxCell>
        <mxCell id="1qI46Z2lSgomtGIxtlbY-53" value="" style="edgeStyle=none;orthogonalLoop=1;jettySize=auto;html=1;rounded=1;fontSize=12;startSize=8;endSize=8;curved=1;" edge="1" parent="1" source="1qI46Z2lSgomtGIxtlbY-2">
          <mxGeometry width="140" relative="1" as="geometry">
            <mxPoint x="-1430" y="-150" as="sourcePoint" />
            <mxPoint x="-1440" y="-160" as="targetPoint" />
            <Array as="points" />
          </mxGeometry>
        </mxCell>
        <mxCell id="1qI46Z2lSgomtGIxtlbY-54" value="internet&lt;br&gt;" style="text;strokeColor=none;fillColor=none;html=1;align=center;verticalAlign=middle;whiteSpace=wrap;rounded=0;fontSize=16;" vertex="1" parent="1">
          <mxGeometry x="-1110" y="-200" width="110" height="80" as="geometry" />
        </mxCell>
      </root>
    </mxGraphModel>
  </diagram>
</mxfile>
